<svg width="104" height="20" viewBox="0 0 104 20" fill="none" xmlns="http://www.w3.org/2000/svg">
<path d="M29.712 2.49V4.164H24.402V7.854H28.542V9.528H24.402V15H22.35V2.49H29.712Z" fill="#333333"/>
<path d="M35.9156 15.162C34.9796 15.162 34.1336 14.952 33.3776 14.532C32.6216 14.1 32.0276 13.5 31.5956 12.732C31.1636 11.952 30.9476 11.052 30.9476 10.032C30.9476 9.024 31.1696 8.13 31.6136 7.35C32.0576 6.57 32.6636 5.97 33.4316 5.55C34.1996 5.13 35.0576 4.92 36.0056 4.92C36.9536 4.92 37.8116 5.13 38.5796 5.55C39.3476 5.97 39.9536 6.57 40.3976 7.35C40.8416 8.13 41.0636 9.024 41.0636 10.032C41.0636 11.04 40.8356 11.934 40.3796 12.714C39.9236 13.494 39.2996 14.1 38.5076 14.532C37.7276 14.952 36.8636 15.162 35.9156 15.162ZM35.9156 13.38C36.4436 13.38 36.9356 13.254 37.3916 13.002C37.8596 12.75 38.2376 12.372 38.5256 11.868C38.8136 11.364 38.9576 10.752 38.9576 10.032C38.9576 9.312 38.8196 8.706 38.5436 8.214C38.2676 7.71 37.9016 7.332 37.4456 7.08C36.9896 6.828 36.4976 6.702 35.9696 6.702C35.4416 6.702 34.9496 6.828 34.4936 7.08C34.0496 7.332 33.6956 7.71 33.4316 8.214C33.1676 8.706 33.0356 9.312 33.0356 10.032C33.0356 11.1 33.3056 11.928 33.8456 12.516C34.3976 13.092 35.0876 13.38 35.9156 13.38Z" fill="#333333"/>
<path d="M47.3942 15.162C46.4582 15.162 45.6122 14.952 44.8562 14.532C44.1002 14.1 43.5062 13.5 43.0742 12.732C42.6422 11.952 42.4262 11.052 42.4262 10.032C42.4262 9.024 42.6482 8.13 43.0922 7.35C43.5362 6.57 44.1422 5.97 44.9102 5.55C45.6782 5.13 46.5362 4.92 47.4842 4.92C48.4322 4.92 49.2902 5.13 50.0582 5.55C50.8262 5.97 51.4322 6.57 51.8762 7.35C52.3202 8.13 52.5422 9.024 52.5422 10.032C52.5422 11.04 52.3142 11.934 51.8582 12.714C51.4022 13.494 50.7782 14.1 49.9862 14.532C49.2062 14.952 48.3422 15.162 47.3942 15.162ZM47.3942 13.38C47.9222 13.38 48.4142 13.254 48.8702 13.002C49.3382 12.75 49.7162 12.372 50.0042 11.868C50.2922 11.364 50.4362 10.752 50.4362 10.032C50.4362 9.312 50.2982 8.706 50.0222 8.214C49.7462 7.71 49.3802 7.332 48.9242 7.08C48.4682 6.828 47.9762 6.702 47.4482 6.702C46.9202 6.702 46.4282 6.828 45.9722 7.08C45.5282 7.332 45.1742 7.71 44.9102 8.214C44.6462 8.706 44.5142 9.312 44.5142 10.032C44.5142 11.1 44.7842 11.928 45.3242 12.516C45.8762 13.092 46.5662 13.38 47.3942 13.38Z" fill="#333333"/>
<path d="M53.8867 9.996C53.8867 9 54.0907 8.118 54.4987 7.35C54.9187 6.582 55.4827 5.988 56.1907 5.568C56.9107 5.136 57.7087 4.92 58.5847 4.92C59.2327 4.92 59.8687 5.064 60.4927 5.352C61.1287 5.628 61.6327 6 62.0047 6.468V1.68H64.0747V15H62.0047V13.506C61.6687 13.986 61.2007 14.382 60.6007 14.694C60.0127 15.006 59.3347 15.162 58.5667 15.162C57.7027 15.162 56.9107 14.946 56.1907 14.514C55.4827 14.07 54.9187 13.458 54.4987 12.678C54.0907 11.886 53.8867 10.992 53.8867 9.996ZM62.0047 10.032C62.0047 9.348 61.8607 8.754 61.5727 8.25C61.2967 7.746 60.9307 7.362 60.4747 7.098C60.0187 6.834 59.5267 6.702 58.9987 6.702C58.4707 6.702 57.9787 6.834 57.5227 7.098C57.0667 7.35 56.6947 7.728 56.4067 8.232C56.1307 8.724 55.9927 9.312 55.9927 9.996C55.9927 10.68 56.1307 11.28 56.4067 11.796C56.6947 12.312 57.0667 12.708 57.5227 12.984C57.9907 13.248 58.4827 13.38 58.9987 13.38C59.5267 13.38 60.0187 13.248 60.4747 12.984C60.9307 12.72 61.2967 12.336 61.5727 11.832C61.8607 11.316 62.0047 10.716 62.0047 10.032Z" fill="#333333"/>
<path d="M70.8919 15.126C70.0519 15.126 69.2959 14.982 68.6239 14.694C67.9519 14.394 67.4239 13.974 67.0399 13.434C66.6559 12.894 66.4639 12.264 66.4639 11.544H68.6599C68.7079 12.084 68.9179 12.528 69.2899 12.876C69.6739 13.224 70.2079 13.398 70.8919 13.398C71.5999 13.398 72.1519 13.23 72.5479 12.894C72.9439 12.546 73.1419 12.102 73.1419 11.562C73.1419 11.142 73.0159 10.8 72.7639 10.536C72.5239 10.272 72.2179 10.068 71.8459 9.924C71.4859 9.78 70.9819 9.624 70.3339 9.456C69.5179 9.24 68.8519 9.024 68.3359 8.808C67.8319 8.58 67.3999 8.232 67.0399 7.764C66.6799 7.296 66.4999 6.672 66.4999 5.892C66.4999 5.172 66.6799 4.542 67.0399 4.002C67.3999 3.462 67.9039 3.048 68.5519 2.76C69.1999 2.472 69.9499 2.328 70.8019 2.328C72.0139 2.328 73.0039 2.634 73.7719 3.246C74.5519 3.846 74.9839 4.674 75.0679 5.73H72.7999C72.7639 5.274 72.5479 4.884 72.1519 4.56C71.7559 4.236 71.2339 4.074 70.5859 4.074C69.9979 4.074 69.5179 4.224 69.1459 4.524C68.7739 4.824 68.5879 5.256 68.5879 5.82C68.5879 6.204 68.7019 6.522 68.9299 6.774C69.1699 7.014 69.4699 7.206 69.8299 7.35C70.1899 7.494 70.6819 7.65 71.3059 7.818C72.1339 8.046 72.8059 8.274 73.3219 8.502C73.8499 8.73 74.2939 9.084 74.6539 9.564C75.0259 10.032 75.2119 10.662 75.2119 11.454C75.2119 12.09 75.0379 12.69 74.6899 13.254C74.3539 13.818 73.8559 14.274 73.1959 14.622C72.5479 14.958 71.7799 15.126 70.8919 15.126Z" fill="#333333"/>
<path d="M79.6852 6.54C80.0332 6.084 80.5072 5.7 81.1072 5.388C81.7072 5.076 82.3852 4.92 83.1412 4.92C84.0052 4.92 84.7912 5.136 85.4992 5.568C86.2192 5.988 86.7832 6.582 87.1912 7.35C87.5992 8.118 87.8032 9 87.8032 9.996C87.8032 10.992 87.5992 11.886 87.1912 12.678C86.7832 13.458 86.2192 14.07 85.4992 14.514C84.7912 14.946 84.0052 15.162 83.1412 15.162C82.3852 15.162 81.7132 15.012 81.1252 14.712C80.5372 14.4 80.0572 14.016 79.6852 13.56V19.716H77.6332V5.082H79.6852V6.54ZM85.7152 9.996C85.7152 9.312 85.5712 8.724 85.2832 8.232C85.0072 7.728 84.6352 7.35 84.1672 7.098C83.7112 6.834 83.2192 6.702 82.6912 6.702C82.1752 6.702 81.6832 6.834 81.2152 7.098C80.7592 7.362 80.3872 7.746 80.0992 8.25C79.8232 8.754 79.6852 9.348 79.6852 10.032C79.6852 10.716 79.8232 11.316 80.0992 11.832C80.3872 12.336 80.7592 12.72 81.2152 12.984C81.6832 13.248 82.1752 13.38 82.6912 13.38C83.2192 13.38 83.7112 13.248 84.1672 12.984C84.6352 12.708 85.0072 12.312 85.2832 11.796C85.5712 11.28 85.7152 10.68 85.7152 9.996Z" fill="#333333"/>
<path d="M90.8764 3.768C90.5044 3.768 90.1924 3.642 89.9404 3.39C89.6884 3.138 89.5624 2.826 89.5624 2.454C89.5624 2.082 89.6884 1.77 89.9404 1.518C90.1924 1.266 90.5044 1.14 90.8764 1.14C91.2364 1.14 91.5424 1.266 91.7944 1.518C92.0464 1.77 92.1724 2.082 92.1724 2.454C92.1724 2.826 92.0464 3.138 91.7944 3.39C91.5424 3.642 91.2364 3.768 90.8764 3.768ZM91.8844 5.082V15H89.8324V5.082H91.8844Z" fill="#333333"/>
<path d="M99.5825 4.92C100.362 4.92 101.058 5.082 101.67 5.406C102.294 5.73 102.78 6.21 103.128 6.846C103.476 7.482 103.65 8.25 103.65 9.15V15H101.616V9.456C101.616 8.568 101.394 7.89 100.95 7.422C100.506 6.942 99.9005 6.702 99.1325 6.702C98.3645 6.702 97.7525 6.942 97.2965 7.422C96.8525 7.89 96.6305 8.568 96.6305 9.456V15H94.5785V5.082H96.6305V6.216C96.9665 5.808 97.3925 5.49 97.9085 5.262C98.4365 5.034 98.9945 4.92 99.5825 4.92Z" fill="#333333"/>
<circle cx="8" cy="8" r="8" fill="#FF922C"/>
<path d="M11 13C11 11.3431 8 5.5 8 5.5C8 5.5 5 11.3431 5 13C5 14.6569 6.34315 16 8 16C9.65685 16 11 14.6569 11 13Z" fill="white"/>
</svg>
